<?xml version="1.0" encoding="UTF-8" ?>
<svg fill="#ffe17d" viewBox="0 0 394 191" xmlns="http://www.w3.org/2000/svg">
<path d=" M 129.54 0.00 L 138.45 0.00 C 142.80 0.53 147.05 1.64 151.22 2.95 C 151.48 7.77 151.49 12.59 151.24 17.41 C 145.29 16.83 139.33 15.52 133.33 16.22 C 128.62 16.78 123.85 19.05 121.27 23.16 C 119.10 26.68 118.57 30.92 118.43 34.97 C 118.37 39.26 118.73 43.70 120.57 47.64 C 122.55 51.83 126.72 54.75 131.25 55.54 C 138.25 56.83 145.29 55.08 152.26 54.52 C 152.50 59.34 152.48 64.17 152.18 68.99 C 144.83 71.55 136.97 72.55 129.21 71.87 C 120.77 71.22 111.88 68.45 106.27 61.75 C 99.30 53.61 97.87 42.30 98.58 31.96 C 99.07 23.11 102.40 14.11 109.17 8.15 C 114.72 3.06 122.22 0.90 129.54 0.00 Z" />
<path d=" M 251.55 0.00 L 259.52 0.00 C 266.75 1.00 274.14 3.31 279.54 8.44 C 286.10 14.42 289.44 23.22 290.10 31.93 C 291.10 42.89 288.97 54.89 281.13 63.09 C 272.92 71.94 259.78 74.23 248.27 72.49 C 239.43 71.26 231.09 66.30 226.26 58.72 C 220.97 50.57 219.84 40.42 220.68 30.93 C 221.43 21.99 225.32 13.06 232.38 7.33 C 237.75 2.83 244.71 0.84 251.55 0.00 M 250.46 15.63 C 244.32 17.51 241.11 24.10 240.45 30.09 C 239.75 37.27 239.82 45.02 243.36 51.51 C 247.86 60.19 262.04 60.20 267.09 52.07 C 270.10 47.32 270.59 41.49 270.59 36.00 C 270.47 30.37 269.75 24.33 266.22 19.73 C 262.56 15.14 255.88 14.06 250.46 15.63 Z" />
<path d=" M 157.19 2.23 C 166.79 1.75 176.40 2.10 186.00 2.00 C 196.01 2.10 206.03 1.76 216.03 2.21 C 216.12 6.88 217.44 12.05 215.53 16.42 C 209.25 17.82 202.65 16.61 196.25 17.07 C 196.33 32.73 196.20 48.39 196.35 64.05 C 196.32 66.23 196.27 68.44 195.63 70.54 C 189.57 71.60 183.37 70.93 177.26 70.75 C 176.64 52.85 177.21 34.93 176.97 17.02 C 170.38 16.97 163.78 17.14 157.20 16.78 C 156.75 11.94 156.75 7.07 157.19 2.23 Z" />
<path d=" M 172.70 122.76 C 180.89 118.78 190.36 118.33 199.25 119.59 C 202.22 120.10 205.39 120.55 207.85 122.42 C 209.05 126.98 208.39 131.76 208.21 136.41 C 202.27 135.83 196.32 134.52 190.33 135.22 C 185.62 135.78 180.86 138.05 178.27 142.16 C 176.10 145.68 175.57 149.92 175.43 153.97 C 175.37 158.26 175.73 162.70 177.57 166.64 C 179.55 170.83 183.72 173.75 188.25 174.54 C 195.24 175.83 202.28 174.08 209.26 173.52 C 209.50 178.34 209.48 183.17 209.20 187.98 C 204.71 189.38 200.13 190.55 195.44 191.00 L 185.53 191.00 C 178.70 190.04 171.65 188.24 166.26 183.71 C 159.90 178.37 156.60 170.17 155.78 162.05 C 155.03 154.57 155.32 146.82 157.83 139.68 C 160.39 132.42 165.73 126.12 172.70 122.76 Z" />
<path d=" M 0.83 121.20 C 7.36 121.16 14.01 120.29 20.46 121.51 C 21.80 122.94 22.61 124.75 23.44 126.50 C 28.07 137.19 32.73 147.87 37.53 158.49 C 38.99 155.89 40.34 153.23 41.55 150.51 C 45.83 140.77 50.19 131.07 54.48 121.33 C 61.01 120.79 67.58 120.89 74.13 121.20 C 74.62 127.45 74.45 133.73 74.44 140.00 C 74.44 155.01 74.44 170.02 74.48 185.04 C 74.24 186.67 74.95 189.26 72.73 189.73 C 67.92 190.48 63.03 189.95 58.21 189.75 C 57.43 175.49 58.07 161.19 57.85 146.92 C 55.03 153.67 51.95 160.30 49.09 167.04 C 48.07 169.27 47.13 171.62 45.46 173.47 C 40.13 174.70 34.57 173.86 29.16 173.82 C 24.72 165.04 20.98 155.94 17.11 146.91 C 16.74 161.18 17.36 175.48 16.76 189.75 C 11.46 190.12 6.14 190.10 0.84 189.81 C 0.52 186.21 0.39 182.61 0.41 179.00 C 0.48 166.67 0.43 154.34 0.45 142.00 C 0.48 135.07 0.18 128.12 0.83 121.20 Z" />
<path d=" M 106.51 121.35 C 113.47 120.98 120.54 120.44 127.47 121.43 C 129.16 123.72 129.95 126.51 130.94 129.15 C 135.88 143.45 141.22 157.61 146.22 171.89 C 148.29 177.76 150.89 183.47 152.04 189.63 C 145.18 190.23 138.28 190.16 131.41 189.71 C 130.13 185.56 128.87 181.39 127.73 177.20 C 120.54 176.85 113.34 176.97 106.15 177.05 C 104.95 181.24 103.72 185.43 102.52 189.63 C 95.89 190.15 89.17 190.47 82.58 189.33 C 83.51 185.84 84.60 182.39 85.83 179.00 C 92.79 159.81 99.69 140.59 106.51 121.35 M 116.73 136.96 C 114.62 145.65 112.00 154.20 109.89 162.90 C 114.57 163.06 119.26 163.05 123.94 162.88 C 121.55 154.23 119.28 145.56 116.73 136.96 Z" />
<path d=" M 213.20 121.23 C 222.79 120.75 232.40 121.10 242.00 121.00 C 252.01 121.10 262.03 120.76 272.03 121.21 C 272.33 125.69 272.90 130.25 272.05 134.71 C 271.28 136.17 269.38 135.85 268.02 136.02 C 262.76 136.12 257.50 135.92 252.25 136.07 C 252.34 151.39 252.19 166.71 252.35 182.03 C 252.33 184.55 252.36 187.11 251.63 189.54 C 245.57 190.60 239.37 189.93 233.26 189.75 C 232.64 171.85 233.21 153.93 232.97 136.02 C 226.38 135.97 219.78 136.14 213.19 135.77 C 212.75 130.94 212.75 126.07 213.20 121.23 Z" />
<path d=" M 280.88 121.15 C 296.63 120.88 312.39 120.94 328.14 121.12 C 328.98 126.00 328.98 131.00 328.14 135.88 C 318.51 136.18 308.88 135.84 299.25 136.08 C 299.25 139.69 299.25 143.31 299.24 146.92 C 307.01 147.39 314.88 146.28 322.58 147.49 C 323.77 152.04 323.73 156.96 322.59 161.52 C 314.88 162.71 307.02 161.61 299.25 162.08 C 299.25 166.36 299.25 170.64 299.25 174.92 C 309.05 175.20 318.87 174.72 328.66 175.22 C 328.80 179.62 329.33 184.09 328.52 188.44 C 328.28 188.75 327.81 189.37 327.57 189.68 C 324.07 190.27 320.51 190.00 316.99 190.03 C 304.95 189.87 292.91 190.21 280.87 189.85 C 280.50 186.59 280.32 183.32 280.34 180.04 C 280.43 167.02 280.37 154.01 280.39 140.99 C 280.43 134.38 280.06 127.73 280.88 121.15 Z" />
<path d=" M 339.88 121.15 C 347.92 120.86 355.98 121.05 364.03 120.97 C 369.36 120.91 374.87 121.07 379.88 123.12 C 385.46 125.38 390.37 129.84 392.24 135.68 C 393.96 141.05 394.00 146.95 392.52 152.39 C 390.72 159.12 384.98 164.28 378.48 166.41 C 371.89 168.61 364.84 167.90 358.02 168.02 C 357.93 175.26 358.18 182.51 357.76 189.75 C 351.81 190.14 345.83 190.09 339.88 189.84 C 339.50 186.59 339.32 183.31 339.34 180.04 C 339.43 167.03 339.37 154.01 339.39 141.00 C 339.43 134.38 339.06 127.74 339.88 121.15 M 358.03 134.96 C 357.96 141.32 357.96 147.68 358.03 154.04 C 360.93 154.04 363.84 154.17 366.73 153.82 C 369.75 153.48 372.77 151.66 373.89 148.73 C 374.77 146.31 374.78 143.60 374.18 141.11 C 373.41 138.05 370.58 135.88 367.56 135.33 C 364.41 134.77 361.21 134.98 358.03 134.96 Z" />
</svg>
